<?xml version="1.0" encoding="UTF-8"?>
<svg width="694" height="162" viewBox="0 0 694 162" fill="none">
    <g clip-path="url(#clip0_293_43)">
    <path d="M174.596 80.9229C174.961 124.854 141.955 162.443 97.5253 161.845H0V0.000489145H97.5253C141.955 -0.597214 174.961 36.726 174.596 80.9229Z" fill="url(#paint0_linear_293_43)"></path>
    <path d="M152.746 57.5134C148.131 46.3222 140.3 36.7513 130.244 30.0111C120.189 23.271 108.36 19.6646 96.2543 19.648C84.1488 19.6314 72.3102 23.2054 62.2361 29.9179C52.1621 36.6305 44.3051 46.1799 39.659 57.3584C35.0129 68.5369 33.7864 80.8422 36.1348 92.7178C38.4831 104.593 44.3007 115.506 52.8517 124.075C61.4027 132.644 72.303 138.484 84.1736 140.857C96.0443 143.23 108.352 142.029 119.54 137.406C126.987 134.367 133.759 129.884 139.465 124.215C145.17 118.546 149.697 111.804 152.784 104.376C155.871 96.9491 157.457 88.9842 157.45 80.9411C157.444 72.8979 155.845 64.9356 152.746 57.5134V57.3474V57.5134ZM47.8491 89.6566C47.3464 86.7391 47.0909 83.7843 47.0854 80.8238C47.103 67.8543 52.2675 55.4219 61.4446 46.2572C70.6217 37.0926 83.0611 31.945 96.0307 31.945C99.7195 31.9765 103.394 32.4107 106.989 33.24C105.942 35.6602 104.296 37.7742 102.207 39.3831C100.846 40.4117 99.4146 41.3438 97.9234 42.1723C93.2757 44.4686 89.3561 48.009 86.6002 52.3997C83.59 58.6929 82.2847 65.6661 82.8148 72.622C82.8148 80.9235 82.8148 85.9043 77.0038 90.1879C68.6027 96.7294 55.8185 92.9771 47.8491 89.6566ZM112.634 89.6566L112.003 90.7191C108.051 97.3603 103.568 104.832 109.645 115.192C110.376 116.487 111.172 117.715 111.969 118.911C113.648 120.789 114.794 123.082 115.29 125.552C108.263 128.745 100.561 130.169 92.8573 129.7C85.1532 129.231 77.6811 126.884 71.0931 122.862C63.5301 118.348 57.3241 111.879 53.1288 104.134C57.1337 105.168 61.2464 105.725 65.3818 105.795C72.317 105.985 79.11 103.806 84.6411 99.6183C95.1341 91.4165 95.1341 80.8902 95.1341 72.456C94.6634 67.5604 95.4402 62.6254 97.3921 58.1111C99.159 55.7067 101.515 53.7971 104.232 52.5658C106.191 51.4351 108.077 50.1819 109.877 48.8135C113.679 45.8034 116.632 41.8552 118.445 37.3575C127.132 41.8082 134.299 48.7437 139.032 57.281C130.266 58.5096 117.847 61.3653 115.39 72.7548C114.838 75.4769 114.549 78.2457 114.526 81.0231C114.687 84.1361 114.034 87.2373 112.634 90.0218V89.6566ZM142.519 96.9618C139.374 105.912 133.699 113.756 126.181 119.542V119.21C125.115 116.772 123.826 114.437 122.33 112.236C121.665 111.273 120.968 110.277 120.37 109.248C117.98 105.064 118.843 103.105 122.695 96.995L123.293 95.9657C125.708 91.3925 126.855 86.2558 126.613 81.0895C126.602 79.0283 126.791 76.971 127.178 74.9464C128.141 70.4968 137.637 69.2682 143.515 68.8366C145.919 78.1627 145.527 87.9901 142.386 97.0947L142.519 96.9618Z" fill="white"></path>
    </g>
    <g clip-path="url(#clip1_293_43)">
    <path d="M272.052 23.2439C275.162 23.2604 278.236 23.9043 281.09 25.137C283.945 26.3697 286.522 28.1658 288.665 30.4179C290.809 32.67 292.477 35.3316 293.568 38.2433C294.659 41.1551 295.151 44.257 295.014 47.3635C295.144 50.4682 294.647 53.5673 293.554 56.476C292.46 59.3848 290.793 62.0437 288.65 64.2943C286.507 66.545 283.934 68.3414 281.082 69.5764C278.231 70.8114 275.16 71.4598 272.052 71.483H229.12V23.2439H272.052ZM268.531 38.5839H247.933V56.2395H268.531C269.634 56.2067 270.717 55.9452 271.713 55.4715C272.709 54.9978 273.596 54.3222 274.317 53.4877C275.039 52.6531 275.578 51.6777 275.903 50.6235C276.227 49.5692 276.329 48.4591 276.201 47.3635C276.322 46.274 276.215 45.1714 275.887 44.1255C275.559 43.0796 275.017 42.1133 274.296 41.2879C273.575 40.4624 272.69 39.7958 271.697 39.3303C270.705 38.8649 269.627 38.6107 268.531 38.5839Z" fill="white"></path>
    <path d="M300.61 23.2441H357.05V35.6416H319.423V41.8162H357.05V52.9594H319.423V59.134H357.05V71.4833H300.61V23.2441Z" fill="white"></path>
    <path d="M431.724 58.5552C431.724 66.997 424.778 71.4833 416.48 71.4833H367.035V23.2441H412.911C421.256 23.2441 428.347 27.7786 428.251 36.1722C428.297 38.2378 427.806 40.2799 426.825 42.0982C425.844 43.9165 424.407 45.4484 422.655 46.5436C425.296 47.2365 427.627 48.7981 429.272 50.9771C430.917 53.1561 431.781 55.8255 431.724 58.5552ZM385.849 34.7251V41.2373H407.604C408.4 41.1403 409.132 40.7556 409.663 40.1558C410.194 39.5559 410.488 38.7824 410.488 37.9812C410.488 37.18 410.194 36.4065 409.663 35.8066C409.132 35.2067 408.4 34.822 407.604 34.7251H385.849ZM411.174 60.0506C411.948 59.9822 412.671 59.6374 413.212 59.0793C413.752 58.5212 414.073 57.7872 414.117 57.0115C414.12 56.2022 413.819 55.4211 413.275 54.8227C412.73 54.2242 411.98 53.852 411.174 53.7795H385.849V60.0506H411.174Z" fill="white"></path>
    <path d="M457.242 23.2441H479.625L505.481 71.4833H484.304L480.493 63.2826H456.374L452.563 71.4833H431.386L457.242 23.2441ZM462.066 51.464H475.139L468.53 36.9923L462.066 51.464Z" fill="white"></path>
    <path d="M515.371 71.4833V38.5842H492.988V23.2441H556.519V38.5842H534.184V71.4833H515.371Z" fill="white"></path>
    <path d="M562.837 23.2441H619.277V35.6416H581.651V41.8162H619.277V52.9594H581.651V59.134H619.277V71.4833H562.837V23.2441Z" fill="white"></path>
    <path d="M675.765 23.2441C680.602 23.2441 685.24 25.1653 688.659 28.5849C692.079 32.0045 694 36.6425 694 41.4785C694.043 44.9969 693.017 48.4454 691.057 51.3675C689.2 54.2348 686.576 56.5243 683.484 57.9763L694 71.4833H673.932L664.863 59.7129H648.076V71.4833H629.504V23.2441H675.765ZM648.076 37.33V45.5789H670.99C671.532 45.5852 672.071 45.4839 672.574 45.2807C673.077 45.0775 673.535 44.7765 673.92 44.3951C674.306 44.0137 674.613 43.5595 674.822 43.0589C675.031 42.5582 675.138 42.0211 675.138 41.4785C675.145 40.9319 675.042 40.3896 674.836 39.8833C674.63 39.3771 674.324 38.9172 673.938 38.5306C673.551 38.1441 673.091 37.8388 672.585 37.6326C672.079 37.4264 671.536 37.3235 670.99 37.33H648.076Z" fill="white"></path>
    <path d="M265.01 117.648L279.722 84.1704H300.899L276.201 132.41H253.818L229.12 84.1704H250.297L265.01 117.648Z" fill="white"></path>
    <path d="M306.64 84.1704H411.319V96.5196H325.598V102.694H411.464V113.837H325.598V120.012H411.464V132.41H306.64V84.1704Z" fill="white"></path>
    <path d="M494.917 84.1705C497.313 84.1641 499.687 84.6314 501.903 85.5455C504.118 86.4596 506.13 87.8025 507.825 89.497C509.519 91.1915 510.862 93.2042 511.776 95.4194C512.691 97.6345 513.158 100.009 513.152 102.405C513.15 105.834 512.143 109.188 510.257 112.053C508.409 114.946 505.762 117.242 502.635 118.661L513.152 132.217H493.132L484.063 120.446H441.951V132.217H423.137V83.9775L494.917 84.1705ZM441.854 98.2563V106.457H490.093C490.629 106.473 491.163 106.378 491.661 106.179C492.159 105.98 492.61 105.681 492.988 105.299C493.382 104.927 493.696 104.478 493.912 103.981C494.127 103.483 494.24 102.947 494.242 102.405C494.248 101.858 494.145 101.316 493.939 100.81C493.733 100.303 493.428 99.8435 493.041 99.457C492.655 99.0705 492.195 98.7651 491.688 98.5589C491.182 98.3527 490.64 98.2498 490.093 98.2563H441.854Z" fill="white"></path>
    <path d="M554.299 102.839C567.758 103.514 586.668 104.431 586.62 116.539C586.62 130.335 570.845 133.567 553.914 133.567C536.982 133.567 522.944 131.493 521.159 116.539H540.889C543.011 120.253 548.028 121.362 553.914 121.362C559.799 121.362 566.938 120.398 566.938 116.539C566.938 114.416 561.101 114.078 553.528 113.741C540.021 113.065 521.111 112.101 521.159 100.041C521.159 86.2444 536.933 82.9641 553.914 82.9641C570.894 82.9641 584.835 84.9902 586.62 100.041H566.793C564.623 96.2299 559.654 95.2168 553.769 95.2168C547.884 95.2168 540.744 96.0852 540.744 100.041C540.889 102.163 546.726 102.453 554.299 102.839Z" fill="white"></path>
    <path d="M594.628 84.1704H694V96.5196H613.441V102.694H694V113.837H613.441V120.012H694V132.41H594.628V84.1704Z" fill="white"></path>
    </g>
    <defs>
    <linearGradient id="paint0_linear_293_43" x1="18.0307" y1="-10.4261" x2="117.714" y2="162.244" gradientUnits="userSpaceOnUse">
    <stop stop-color="#685FAA"></stop>
    <stop offset="0.5" stop-color="#3D56A6"></stop>
    <stop offset="1" stop-color="#6BC28C"></stop>
    </linearGradient>
    <clipPath id="clip0_293_43">
    <rect width="174.596" height="161.845" fill="white"></rect>
    </clipPath>
    <clipPath id="clip1_293_43">
    <rect width="464.88" height="110.323" fill="white" transform="translate(229.12 23.2439)"></rect>
    </clipPath>
    </defs>
    </svg>